<mxfile host="app.diagrams.net" agent="Mozilla/5.0 (X11; Linux x86_64) AppleWebKit/537.36 (KHTML, like Gecko) Chrome/139.0.0.0 Safari/537.36" version="28.2.7">
  <diagram name="Microsoft Entra ID — Identity Hierarchy &amp; RBAC" id="0">
    <mxGraphModel dx="748" dy="518" grid="1" gridSize="10" guides="1" tooltips="1" connect="1" arrows="1" fold="1" page="1" pageScale="1" pageWidth="850" pageHeight="1100" math="0" shadow="0">
      <root>
        <mxCell id="0" />
        <mxCell id="1" parent="0" />
        <mxCell id="apps" value="App Registrations / Service Principals" style="rounded=1;dashed=1;fillColor=#ffffff;strokeColor=#000000;align=left;verticalAlign=top;spacing=6;sketch=1;curveFitting=1;jiggle=2;" parent="1" vertex="1">
          <mxGeometry x="20" y="290" width="360" height="360" as="geometry" />
        </mxCell>
        <mxCell id="shared" value="Shared Workloads" style="rounded=1;fillColor=#dcfce7;strokeColor=#16a34a;align=left;verticalAlign=top;spacing=6;sketch=1;curveFitting=1;jiggle=2;" parent="apps" vertex="1">
          <mxGeometry x="20" y="148.23529411764707" width="320" height="95.29411764705883" as="geometry" />
        </mxCell>
        <mxCell id="cicd" value="CI/CD Pipeline" style="rounded=1;fillColor=#fff2cc;strokeColor=#d6b656;align=left;verticalAlign=top;spacing=6;sketch=1;curveFitting=1;jiggle=2;" parent="apps" vertex="1">
          <mxGeometry x="20" y="42.35294117647059" width="320" height="95.29411764705883" as="geometry" />
        </mxCell>
        <mxCell id="cicd_items" value="- app-cicd-dev&#xa;- app-cicd-qa&#xa;- app-cicd-prod" style="rounded=0;fillColor=#ffffff;strokeColor=#ffffff;align=left;verticalAlign=top;spacing=4;sketch=1;curveFitting=1;jiggle=2;" parent="apps" vertex="1">
          <mxGeometry x="30" y="74.11764705882354" width="280" height="52.94117647058824" as="geometry" />
        </mxCell>
        <mxCell id="shared_items" value="- key-vault-api-dev&#xa;- key-vault-api-qa&#xa;- key-vault-api-prod" style="rounded=0;fillColor=#ffffff;strokeColor=#ffffff;align=left;verticalAlign=top;spacing=4;sketch=1;curveFitting=1;jiggle=2;" parent="apps" vertex="1">
          <mxGeometry x="30" y="179.99823529411765" width="280" height="52.94117647058824" as="geometry" />
        </mxCell>
        <mxCell id="payment" value="Payment Service" style="rounded=1;fillColor=#e1d5e7;strokeColor=#64748b;align=left;verticalAlign=top;spacing=6;sketch=1;curveFitting=1;jiggle=2;" parent="apps" vertex="1">
          <mxGeometry x="20" y="254.11764705882354" width="320" height="95.29411764705883" as="geometry" />
        </mxCell>
        <mxCell id="payment_items" value="- app-sb-worker-dev&#xa;- app-sb-worker-qa&#xa;- app-sb-worker-prod" style="rounded=0;fillColor=#ffffff;strokeColor=#ffffff;align=left;verticalAlign=top;spacing=4;sketch=1;curveFitting=1;jiggle=2;" parent="apps" vertex="1">
          <mxGeometry x="30" y="290.00117647058823" width="280" height="52.94117647058824" as="geometry" />
        </mxCell>
        <mxCell id="title" value="Microsoft Entra ID — Identity Hierarchy &amp; RBAC Mappings" style="rounded=1;fillColor=#dae8fc;strokeColor=#6c8ebf;fontStyle=1;sketch=1;curveFitting=1;jiggle=2;" parent="1" vertex="1">
          <mxGeometry x="20" y="10" width="700" height="40" as="geometry" />
        </mxCell>
        <mxCell id="tenant" value="Entra ID Tenant&#xa;(Users, Groups, App Registrations)" style="rounded=1;fillColor=#e1d5e7;strokeColor=#9673a6;align=left;verticalAlign=top;spacing=6;sketch=1;curveFitting=1;jiggle=2;" parent="1" vertex="1">
          <mxGeometry x="20" y="70" width="360" height="90" as="geometry" />
        </mxCell>
        <mxCell id="groups" value="Groups&#xa;- Dev Team Group&#xa;- AKS Admins Group" style="rounded=1;fillColor=#f0f9ff;strokeColor=#0284c7;align=left;verticalAlign=top;spacing=6;sketch=1;curveFitting=1;jiggle=2;" parent="1" vertex="1">
          <mxGeometry x="20" y="180" width="360" height="90" as="geometry" />
        </mxCell>
        <mxCell id="rbac" value="Typical RBAC Assignments (by Role)" style="rounded=1;fillColor=#fefce8;strokeColor=#a16207;align=left;verticalAlign=top;spacing=8;sketch=1;curveFitting=1;jiggle=2;" parent="1" vertex="1">
          <mxGeometry x="420" y="70" width="420" height="220" as="geometry" />
        </mxCell>
        <mxCell id="rbac_items" value="CI/CD Identities:&#xa;  • app-cicd-dev/qa → Contributor on Dev/QA subs&#xa;  • app-cicd-prod → AKS Cluster User (Prod), AcrPush (Prod)&#xa;&#xa;Shared Workloads:&#xa;  • key-vault-api-*: Key Vault Secrets User on env KV(s)&#xa;&#xa;Payment Service:&#xa;  • app-sb-worker-*: Service Bus Data Receiver/Sender&#xa;" style="rounded=0;fillColor=#ffffff;strokeColor=#ffffff;align=left;verticalAlign=top;spacing=4;sketch=1;curveFitting=1;jiggle=2;" parent="1" vertex="1">
          <mxGeometry x="440" y="110" width="380" height="160" as="geometry" />
        </mxCell>
        <mxCell id="envs" value="Environment Alignment" style="rounded=1;fillColor=#f0f9ff;strokeColor=#0284c7;align=left;verticalAlign=top;spacing=8;sketch=1;curveFitting=1;jiggle=2;" parent="1" vertex="1">
          <mxGeometry x="420" y="310" width="420" height="160" as="geometry" />
        </mxCell>
        <mxCell id="env_items" value="Non-Production MG:&#xa;  • Dev Subscription&#xa;  • QA Subscription&#xa;&#xa;Production MG:&#xa;  • Prod Subscription" style="rounded=0;fillColor=#ffffff;strokeColor=#ffffff;align=left;verticalAlign=top;spacing=4;sketch=1;curveFitting=1;jiggle=2;" parent="1" vertex="1">
          <mxGeometry x="440" y="350" width="380" height="110" as="geometry" />
        </mxCell>
        <mxCell id="notes" value="Notes" style="rounded=1;fillColor=#cfe2f3;strokeColor=#3d85c6;align=left;verticalAlign=top;spacing=8;sketch=1;curveFitting=1;jiggle=2;" parent="1" vertex="1">
          <mxGeometry x="420" y="490" width="420" height="140" as="geometry" />
        </mxCell>
        <mxCell id="notes_items" value="• Identities are scoped least-privilege per environment.&#xa;• Use Managed Identity where possible for in-cluster workloads.&#xa;• Store secrets in Key Vault and reference via CSI driver in AKS.&#xa;• Separate Terraform state files for dev/qa/prod." style="rounded=0;fillColor=#ffffff;strokeColor=#ffffff;align=left;verticalAlign=top;spacing=4;sketch=1;curveFitting=1;jiggle=2;" parent="1" vertex="1">
          <mxGeometry x="440" y="530" width="380" height="90" as="geometry" />
        </mxCell>
      </root>
    </mxGraphModel>
  </diagram>
</mxfile>
